<svg id="Capa_1" data-name="Capa 1" xmlns="http://www.w3.org/2000/svg" viewBox="0 0 468.35 696.55">
  <g>
    <path d="M336.22,715,127.69,668.76V153.23l208.53,40.54Z" transform="translate(-126.19 -19.48)" style="fill: #ccc;stroke: #f2f2f2;stroke-linecap: round;stroke-miterlimit: 10"/>
    <path d="M336.22,193.77,127.69,153.23,384.49,20,593,56.69Z" transform="translate(-126.19 -19.48)" style="fill: #ccc;stroke: #f2f2f2;stroke-linecap: round;stroke-miterlimit: 10"/>
    <path d="M593,545.19,336.22,715.1V193.77L593,56.69Z" transform="translate(-126.19 -19.48)" style="fill: #ccc;stroke: #f2f2f2;stroke-linecap: round;stroke-miterlimit: 10"/>
    <ellipse cx="160.8" cy="358.69" rx="14.48" ry="28" style="fill: #f2f2f2;stroke: #f2f2f2;stroke-linecap: round;stroke-miterlimit: 10"/>
    <polygon points="30.47 458.13 30.47 438.82 49.77 438.82 30.47 458.13" style="fill: #f2f2f2;stroke: #f2f2f2;stroke-linecap: round;stroke-miterlimit: 10"/>
    <line x1="175.28" y1="210.98" x2="175.28" y2="311.39" style="fill: #f2f2f2;stroke: #f2f2f2;stroke-linecap: round;stroke-miterlimit: 10"/>
    <line x1="30.47" y1="182.02" x2="175.28" y2="210.98" style="fill: #f2f2f2;stroke: #f2f2f2;stroke-linecap: round;stroke-miterlimit: 10"/>
    <polygon points="63.29 465.85 63.29 446.54 82.6 446.54 63.29 465.85" style="fill: #f2f2f2;stroke: #f2f2f2;stroke-linecap: round;stroke-miterlimit: 10"/>
    <line x1="175.28" y1="311.39" x2="30.47" y2="282.42" style="fill: #f2f2f2;stroke: #f2f2f2;stroke-linecap: round;stroke-miterlimit: 10"/>
    <line x1="30.47" y1="282.42" x2="30.47" y2="182.02" style="fill: #f2f2f2;stroke: #f2f2f2;stroke-linecap: round;stroke-miterlimit: 10"/>
    <line x1="30.47" y1="236.08" x2="175.28" y2="265.05" style="fill: none;stroke: #f2f2f2;stroke-linecap: round;stroke-miterlimit: 10"/>
  </g>
</svg>
