<svg id="Capa_1" data-name="Capa 1" xmlns="http://www.w3.org/2000/svg" viewBox="0 0 714.1 659.04">
  <g>
    <path d="M624.33,689.58,97.59,692.44C26.21,692.82-19,616,16,553.8l265.37-472c35.65-63.4,127-63.22,162.38.31L705.1,551.26C739.55,613.08,695.1,689.2,624.33,689.58Z" transform="translate(-3.4 -33.9)" style="fill: #ccc;stroke: #ccc;stroke-miterlimit: 10"/>
    <path d="M578.35,654.27l-433.27,2.45c-58.71.33-95.9-65.58-67.12-119l218.28-405c29.32-54.39,104.44-54.24,133.56.27l215,402.53C673.12,588.63,636.56,653.94,578.35,654.27Z" transform="translate(-3.4 -33.9)" style="fill: #fff;stroke: #b3b3b3;stroke-miterlimit: 10"/>
    <path d="M390.26,461.91H337.21q-4.56-121.64-9.14-243.27h71.34Z" transform="translate(-3.4 -33.9)" style="fill: #ccc;stroke: #ccc;stroke-miterlimit: 10"/>
    <circle cx="360.33" cy="503.93" r="42.07" style="fill: #ccc;stroke: #ccc;stroke-miterlimit: 10"/>
  </g>
</svg>
