<svg id="Capa_1" data-name="Capa 1" xmlns="http://www.w3.org/2000/svg" viewBox="0 0 1062.8 1030.05">
  <path d="M100.4,542.51H708.86a26.81,26.81,0,0,1,26.81,26.81V771.54A27.49,27.49,0,0,1,708.18,799H100.4a0,0,0,0,1,0,0V542.51a0,0,0,0,1,0,0Z" transform="translate(-360.93 468.35) rotate(-45.1)" style="fill: none;stroke: #000;stroke-miterlimit: 10;stroke-width: 7px"/>
  <ellipse cx="324.1" cy="765.02" rx="100.71" ry="100.87" transform="translate(-455.32 429.54) rotate(-45.1)" style="fill: none;stroke: #000;stroke-miterlimit: 10;stroke-width: 3px"/>
  <ellipse cx="323.64" cy="765.05" rx="106.49" ry="106.66" transform="translate(-455.47 429.22) rotate(-45.1)" style="fill: none;stroke: #000;stroke-miterlimit: 10"/>
  <ellipse cx="324.43" cy="765.62" rx="24.14" ry="24.18" transform="translate(-455.64 429.95) rotate(-45.1)" style="stroke: #000;stroke-miterlimit: 10"/>
  <path d="M295.51,750.39c5.62-8.22,9.82-9.86,9.82-9.86-25.22-27.71-25.3-57.38-25.3-57.38-18.68,8.4-32.82,29.05-32.82,29.05s10.94,13.48,22.93,22.85A138,138,0,0,0,295.51,750.39Z" transform="translate(-8.76 -25.03)" style="stroke: #000;stroke-miterlimit: 10"/>
  <path d="M314.15,735.22c9.8-1.76,13.92.09,13.92.09,2-37.38,23.08-58.23,23.08-58.23-19.12-7.42-43.77-3-43.77-3s-1.9,17.23-.15,32.33A137.4,137.4,0,0,0,314.15,735.22Z" transform="translate(-8.76 -25.03)" style="stroke: #000;stroke-miterlimit: 10"/>
  <path d="M336.63,736.39c8.49,5.21,10.34,9.34,10.34,9.34,26.4-26.52,56-28,56-28-9.34-18.26-30.69-31.4-30.69-31.4s-12.9,11.57-21.65,24A136.85,136.85,0,0,0,336.63,736.39Z" transform="translate(-8.76 -25.03)" style="stroke: #000;stroke-miterlimit: 10"/>
  <path d="M353.77,754.2c2.57,9.63,1.06,13.88,1.06,13.88,37.43-1,59.95,18.4,59.95,18.4,5.82-19.65-.61-43.87-.61-43.87s-17.33-.53-32.24,2.41A137.23,137.23,0,0,0,353.77,754.2Z" transform="translate(-8.76 -25.03)" style="stroke: #000;stroke-miterlimit: 10"/>
  <path d="M352.4,779.51c-5.62,8.22-9.83,9.85-9.83,9.85,25.23,27.72,25.3,57.38,25.3,57.38,18.69-8.4,32.83-29,32.83-29s-10.94-13.47-22.93-22.85A138,138,0,0,0,352.4,779.51Z" transform="translate(-8.76 -25.03)" style="stroke: #000;stroke-miterlimit: 10"/>
  <path d="M333.56,795.64c-9.8,1.81-13.93,0-13.93,0C317.8,833,296.81,854,296.81,854c19.16,7.33,43.79,2.81,43.79,2.81s1.83-17.24,0-32.34A137.81,137.81,0,0,0,333.56,795.64Z" transform="translate(-8.76 -25.03)" style="stroke: #000;stroke-miterlimit: 10"/>
  <path d="M311.09,794.35c-8.56-5.11-10.46-9.21-10.46-9.21C274.57,812,245,813.86,245,813.86c9.57,18.14,31.08,31,31.08,31s12.76-11.73,21.35-24.26A137.37,137.37,0,0,0,311.09,794.35Z" transform="translate(-8.76 -25.03)" style="stroke: #000;stroke-miterlimit: 10"/>
  <path d="M294.55,776.7c-2.41-9.67-.83-13.9-.83-13.9-37.44.36-59.65-19.35-59.65-19.35-6.13,19.55-.1,43.87-.1,43.87s17.32.81,32.28-1.89A137.61,137.61,0,0,0,294.55,776.7Z" transform="translate(-8.76 -25.03)" style="stroke: #000;stroke-miterlimit: 10"/>
  <ellipse cx="324.64" cy="765.61" rx="27.91" ry="27.96" transform="translate(-455.58 430.09) rotate(-45.1)" style="fill: none;stroke: #fff;stroke-miterlimit: 10;stroke-width: 9px"/>
  <ellipse cx="325.1" cy="765.08" rx="95.32" ry="95.47" transform="translate(-455.06 430.26) rotate(-45.1)" style="fill: none;stroke: #fff;stroke-miterlimit: 10;stroke-width: 3px"/>
  <line x1="9.5" y1="695.77" x2="336.04" y2="1020.55" style="fill: none;stroke: #000;stroke-linecap: round;stroke-miterlimit: 10;stroke-width: 19px"/>
  <path d="M628.25,367.49h63.43a7.75,7.75,0,0,1,7.75,7.75v73.93a7.75,7.75,0,0,1-7.75,7.75H628.25a0,0,0,0,1,0,0V367.49a0,0,0,0,1,0,0Z" transform="translate(-105.49 566.41) rotate(-45.1)" style="fill: none;stroke: #000;stroke-miterlimit: 10;stroke-width: 7px"/>
  <path d="M832.35,287.05,711.57,408.24l-44-43.8L788.4,243.25a11.39,11.39,0,0,1,16.11,0l27.81,27.72A11.39,11.39,0,0,1,832.35,287.05Z" transform="translate(-8.76 -25.03)" style="fill: none;stroke: #000;stroke-miterlimit: 10;stroke-width: 5px"/>
  <polygon points="1027.75 18.38 812.24 234.63 807.07 229.48 1033.8 1.97 1027.75 18.38" style="fill: none;stroke: #000;stroke-miterlimit: 10"/>
  <path d="M119.49,814h13a0,0,0,0,1,0,0V925.27a0,0,0,0,1,0,0h-13a6.11,6.11,0,0,1-6.11-6.11V820.07a6.11,6.11,0,0,1,6.11-6.11Z" transform="translate(-588.56 317.83) rotate(-45.1)" style="stroke: #000;stroke-miterlimit: 10;stroke-width: 2px"/>
  <path d="M216.61,912h13a0,0,0,0,1,0,0v111.32a0,0,0,0,1,0,0h-13a6.11,6.11,0,0,1-6.11-6.11V918.13A6.11,6.11,0,0,1,216.61,912Z" transform="translate(-629.46 415.45) rotate(-45.1)" style="stroke: #000;stroke-miterlimit: 10;stroke-width: 2px"/>
  <rect x="552.47" y="672.01" width="120.45" height="32.85" transform="translate(-316.2 611.42) rotate(-45.1)" style="stroke: #000;stroke-miterlimit: 10;stroke-width: 2px"/>
  <rect x="573.61" y="713.95" width="7.3" height="20.07" rx="2" transform="translate(-351.79 596.79) rotate(-45.1)" style="fill: #fff;stroke: #fff;stroke-miterlimit: 10;stroke-width: 0.5px"/>
  <rect x="583.92" y="703.6" width="7.3" height="20.07" rx="2" transform="translate(-341.44 601.04) rotate(-45.1)" style="fill: #fff;stroke: #fff;stroke-miterlimit: 10;stroke-width: 0.5px"/>
  <rect x="594.22" y="693.26" width="7.3" height="20.07" rx="2" transform="translate(-331.08 605.3) rotate(-45.1)" style="fill: #fff;stroke: #fff;stroke-miterlimit: 10;stroke-width: 0.5px"/>
  <rect x="604.53" y="682.92" width="7.3" height="20.07" rx="2" transform="translate(-320.73 609.56) rotate(-45.1)" style="fill: #fff;stroke: #fff;stroke-miterlimit: 10;stroke-width: 0.5px"/>
  <rect x="614.84" y="672.58" width="7.3" height="20.07" rx="2" transform="translate(-310.37 613.82) rotate(-45.1)" style="fill: #fff;stroke: #fff;stroke-miterlimit: 10;stroke-width: 0.5px"/>
  <rect x="625.14" y="662.24" width="7.3" height="20.07" rx="2" transform="translate(-300.01 618.08) rotate(-45.1)" style="fill: #fff;stroke: #fff;stroke-miterlimit: 10;stroke-width: 0.5px"/>
  <rect x="635.45" y="651.9" width="7.3" height="20.07" rx="2" transform="translate(-289.66 622.34) rotate(-45.1)" style="fill: #fff;stroke: #fff;stroke-miterlimit: 10;stroke-width: 0.5px"/>
  <rect x="645.75" y="641.56" width="7.3" height="20.07" rx="2" transform="translate(-279.3 626.59) rotate(-45.1)" style="fill: #fff;stroke: #fff;stroke-miterlimit: 10;stroke-width: 0.5px"/>
  <rect x="288.22" y="835.53" width="323.01" height="32.85" transform="translate(-479.95 544.09) rotate(-45.1)" style="stroke: #000;stroke-miterlimit: 10;stroke-width: 2px"/>
  <rect x="482.15" y="805.72" width="7.3" height="20.07" rx="2" transform="translate(-443.7 558.99) rotate(-45.1)" style="fill: #fff;stroke: #fff;stroke-miterlimit: 10;stroke-width: 0.5px"/>
  <rect x="492.46" y="795.38" width="7.3" height="20.07" rx="2" transform="translate(-433.34 563.25) rotate(-45.1)" style="fill: #fff;stroke: #fff;stroke-miterlimit: 10;stroke-width: 0.5px"/>
  <rect x="502.76" y="785.04" width="7.3" height="20.07" rx="2" transform="translate(-422.99 567.51) rotate(-45.1)" style="fill: #fff;stroke: #fff;stroke-miterlimit: 10;stroke-width: 0.5px"/>
  <rect x="513.07" y="774.7" width="7.3" height="20.07" rx="2" transform="translate(-412.63 571.77) rotate(-45.1)" style="fill: #fff;stroke: #fff;stroke-miterlimit: 10;stroke-width: 0.5px"/>
  <rect x="523.37" y="764.36" width="7.3" height="20.07" rx="2" transform="translate(-402.28 576.03) rotate(-45.1)" style="fill: #fff;stroke: #fff;stroke-miterlimit: 10;stroke-width: 0.5px"/>
  <rect x="533.68" y="754.02" width="7.3" height="20.07" rx="2" transform="translate(-391.92 580.28) rotate(-45.1)" style="fill: #fff;stroke: #fff;stroke-miterlimit: 10;stroke-width: 0.5px"/>
  <rect x="543.98" y="743.68" width="7.3" height="20.07" rx="2" transform="translate(-381.57 584.54) rotate(-45.1)" style="fill: #fff;stroke: #fff;stroke-miterlimit: 10;stroke-width: 0.5px"/>
  <rect x="554.29" y="733.33" width="7.3" height="20.07" rx="2" transform="translate(-371.21 588.8) rotate(-45.1)" style="fill: #fff;stroke: #fff;stroke-miterlimit: 10;stroke-width: 0.5px"/>
  <rect x="399.7" y="888.45" width="7.3" height="20.07" rx="2" transform="translate(-526.55 524.93) rotate(-45.1)" style="fill: #fff;stroke: #fff;stroke-miterlimit: 10;stroke-width: 0.5px"/>
  <rect x="410.01" y="878.11" width="7.3" height="20.07" rx="2" transform="translate(-516.19 529.19) rotate(-45.1)" style="fill: #fff;stroke: #fff;stroke-miterlimit: 10;stroke-width: 0.5px"/>
  <rect x="420.32" y="867.77" width="7.3" height="20.07" rx="2" transform="translate(-505.83 533.44) rotate(-45.1)" style="fill: #fff;stroke: #fff;stroke-miterlimit: 10;stroke-width: 0.5px"/>
  <rect x="430.62" y="857.43" width="7.3" height="20.07" rx="2" transform="translate(-495.48 537.7) rotate(-45.1)" style="fill: #fff;stroke: #fff;stroke-miterlimit: 10;stroke-width: 0.5px"/>
  <rect x="440.93" y="847.09" width="7.3" height="20.07" rx="2" transform="translate(-485.12 541.96) rotate(-45.1)" style="fill: #fff;stroke: #fff;stroke-miterlimit: 10;stroke-width: 0.5px"/>
  <rect x="451.23" y="836.75" width="7.3" height="20.07" rx="2" transform="translate(-474.77 546.22) rotate(-45.1)" style="fill: #fff;stroke: #fff;stroke-miterlimit: 10;stroke-width: 0.5px"/>
  <rect x="461.54" y="826.4" width="7.3" height="20.07" rx="2" transform="translate(-464.41 550.48) rotate(-45.1)" style="fill: #fff;stroke: #fff;stroke-miterlimit: 10;stroke-width: 0.5px"/>
  <rect x="471.84" y="816.06" width="7.3" height="20.07" rx="2" transform="translate(-454.06 554.74) rotate(-45.1)" style="fill: #fff;stroke: #fff;stroke-miterlimit: 10;stroke-width: 0.5px"/>
  <rect x="337.87" y="950.5" width="7.3" height="20.07" rx="2" transform="translate(-588.68 499.38) rotate(-45.1)" style="fill: #fff;stroke: #fff;stroke-miterlimit: 10;stroke-width: 0.5px"/>
  <rect x="348.18" y="940.16" width="7.3" height="20.07" rx="2" transform="translate(-578.32 503.64) rotate(-45.1)" style="fill: #fff;stroke: #fff;stroke-miterlimit: 10;stroke-width: 0.5px"/>
  <rect x="358.48" y="929.82" width="7.3" height="20.07" rx="2" transform="translate(-567.97 507.89) rotate(-45.1)" style="fill: #fff;stroke: #fff;stroke-miterlimit: 10;stroke-width: 0.5px"/>
  <rect x="368.79" y="919.47" width="7.3" height="20.07" rx="2" transform="translate(-557.61 512.15) rotate(-45.1)" style="fill: #fff;stroke: #fff;stroke-miterlimit: 10;stroke-width: 0.5px"/>
  <rect x="379.09" y="909.13" width="7.3" height="20.07" rx="2" transform="translate(-547.26 516.41) rotate(-45.1)" style="fill: #fff;stroke: #fff;stroke-miterlimit: 10;stroke-width: 0.5px"/>
  <rect x="389.4" y="898.79" width="7.3" height="20.07" rx="2" transform="translate(-536.9 520.67) rotate(-45.1)" style="fill: #fff;stroke: #fff;stroke-miterlimit: 10;stroke-width: 0.5px"/>
  <line x1="374.01" y1="532.18" x2="390.81" y2="548.93" style="fill: none;stroke: #000;stroke-linecap: round;stroke-miterlimit: 10;stroke-width: 2px"/>
  <line x1="372.83" y1="600.57" x2="389.58" y2="583.77" style="fill: none;stroke: #000;stroke-linecap: round;stroke-miterlimit: 10;stroke-width: 2px"/>
  <line x1="390.81" y1="548.93" x2="389.58" y2="583.77" style="fill: none;stroke: #000;stroke-linecap: round;stroke-miterlimit: 10;stroke-width: 2px"/>
  <line x1="389.64" y1="617.32" x2="434.73" y2="572.08" style="fill: none;stroke: #000;stroke-linecap: round;stroke-miterlimit: 10;stroke-width: 2px"/>
  <rect x="204.07" y="646.12" width="241.53" height="236.69" rx="14.33" transform="translate(-454.71 429.89) rotate(-45.1)" style="fill: none;stroke: #000;stroke-miterlimit: 10;stroke-width: 2px"/>
  <ellipse cx="185.75" cy="765.15" rx="7.52" ry="7.53" transform="translate(-496.1 331.58) rotate(-45.1)" style="fill: none;stroke: #000;stroke-miterlimit: 10;stroke-width: 2px"/>
  <ellipse cx="325.09" cy="624.69" rx="7.52" ry="7.53" transform="translate(-355.63 388.97) rotate(-45.1)" style="fill: none;stroke: #000;stroke-miterlimit: 10;stroke-width: 2px"/>
  <ellipse cx="462.97" cy="762.35" rx="7.52" ry="7.53" transform="translate(-412.59 527.11) rotate(-45.1)" style="fill: none;stroke: #000;stroke-miterlimit: 10;stroke-width: 2px"/>
  <ellipse cx="323.59" cy="902.48" rx="7.52" ry="7.53" transform="translate(-552.84 469.6) rotate(-45.1)" style="fill: none;stroke: #000;stroke-miterlimit: 10;stroke-width: 2px"/>
  <ellipse cx="678.49" cy="534.16" rx="11.52" ry="11.54" transform="translate(-187.57 612.66) rotate(-45.1)" style="stroke: #000;stroke-miterlimit: 10;stroke-width: 2px"/>
  <ellipse cx="550.8" cy="409.24" rx="11.52" ry="11.54" transform="translate(-136.64 485.47) rotate(-45.1)" style="stroke: #000;stroke-miterlimit: 10;stroke-width: 3px"/>
  <ellipse cx="520.63" cy="692" rx="7.71" ry="7.72" transform="translate(-345.8 547.26) rotate(-45.1)" style="stroke: #000;stroke-miterlimit: 10"/>
  <ellipse cx="521.05" cy="692.19" rx="11.64" ry="11.66" transform="translate(-345.8 547.62) rotate(-45.1)" style="fill: none;stroke: #000;stroke-miterlimit: 10;stroke-width: 0.5px"/>
  <line x1="429.5" y1="533.37" x2="434.73" y2="572.08" style="fill: none;stroke: #000;stroke-linecap: round;stroke-miterlimit: 10;stroke-width: 2px"/>
  <line x1="411.4" y1="515.34" x2="429.5" y2="533.37" style="fill: none;stroke: #000;stroke-linecap: round;stroke-miterlimit: 10;stroke-width: 2px"/>
  <line x1="479.76" y1="493.28" x2="446.26" y2="526.89" style="fill: none;stroke: #000;stroke-linecap: round;stroke-miterlimit: 10;stroke-width: 2px"/>
  <line x1="406.44" y1="634.07" x2="456.68" y2="583.65" style="fill: none;stroke: #000;stroke-linecap: round;stroke-miterlimit: 10;stroke-width: 2px"/>
  <line x1="446.26" y1="526.89" x2="456.68" y2="583.65" style="fill: none;stroke: #000;stroke-linecap: round;stroke-miterlimit: 10;stroke-width: 2px"/>
  <line x1="423.25" y1="650.81" x2="518.57" y2="555.16" style="fill: none;stroke: #000;stroke-linecap: round;stroke-miterlimit: 10;stroke-width: 2px"/>
  <line x1="552.13" y1="555.1" x2="518.57" y2="555.16" style="fill: none;stroke: #000;stroke-linecap: round;stroke-miterlimit: 10;stroke-width: 2px"/>
  <line x1="586.91" y1="520.2" x2="552.13" y2="555.1" style="fill: none;stroke: #000;stroke-linecap: round;stroke-miterlimit: 10;stroke-width: 2px"/>
  <line x1="445.22" y1="672.71" x2="528.96" y2="588.69" style="fill: none;stroke: #000;stroke-linecap: round;stroke-miterlimit: 10;stroke-width: 2px"/>
  <line x1="562.51" y1="588.63" x2="528.96" y2="588.69" style="fill: none;stroke: #000;stroke-linecap: round;stroke-miterlimit: 10;stroke-width: 2px"/>
  <line x1="579.31" y1="605.38" x2="562.51" y2="588.63" style="fill: none;stroke: #000;stroke-linecap: round;stroke-miterlimit: 10;stroke-width: 2px"/>
  <line x1="548.38" y1="631.24" x2="526.49" y2="653.22" style="fill: none;stroke: #000;stroke-linecap: round;stroke-miterlimit: 10;stroke-width: 2px"/>
  <line x1="527.42" y1="445.46" x2="510.67" y2="462.26" style="fill: none;stroke: #000;stroke-linecap: round;stroke-miterlimit: 10;stroke-width: 2px"/>
  <line x1="553.24" y1="450.57" x2="527.42" y2="445.46" style="fill: none;stroke: #000;stroke-linecap: round;stroke-miterlimit: 10;stroke-width: 2px"/>
  <line x1="642.43" y1="539.46" x2="553.24" y2="450.57" style="fill: none;stroke: #000;stroke-linecap: round;stroke-miterlimit: 10;stroke-width: 2px"/>
  <line x1="465.51" y1="461.05" x2="514.46" y2="411.93" style="fill: none;stroke: #000;stroke-linecap: round;stroke-miterlimit: 10;stroke-width: 2px"/>
  <line x1="548.01" y1="411.87" x2="514.46" y2="411.93" style="fill: none;stroke: #000;stroke-linecap: round;stroke-miterlimit: 10;stroke-width: 2px"/>
  <ellipse cx="228" cy="666.82" rx="18.42" ry="3.96" transform="translate(-414.02 332.58) rotate(-45.1)" style="fill: #020202;stroke: #020202;stroke-linecap: round;stroke-miterlimit: 10;stroke-width: 5px"/>
  <ellipse cx="419.96" cy="420.46" rx="3.96" ry="18.42" transform="translate(-182.43 367.99) rotate(-42.39)" style="fill: #020202;stroke: #020202;stroke-linecap: round;stroke-miterlimit: 10;stroke-width: 5px"/>
  <ellipse cx="427.91" cy="412.83" rx="3.96" ry="18.42" transform="translate(-175.21 371.35) rotate(-42.39)" style="fill: #020202;stroke: #020202;stroke-linecap: round;stroke-miterlimit: 10;stroke-width: 5px"/>
  <ellipse cx="436.05" cy="405.51" rx="3.96" ry="18.42" transform="translate(-168.15 374.93) rotate(-42.39)" style="fill: #020202;stroke: #020202;stroke-linecap: round;stroke-miterlimit: 10;stroke-width: 5px"/>
  <ellipse cx="394.95" cy="443.52" rx="3.96" ry="18.42" transform="translate(-204.51 357.16) rotate(-42.39)" style="fill: #020202;stroke: #020202;stroke-linecap: round;stroke-miterlimit: 10;stroke-width: 5px"/>
  <ellipse cx="402.89" cy="435.89" rx="3.96" ry="18.42" transform="translate(-197.29 360.52) rotate(-42.39)" style="fill: #020202;stroke: #020202;stroke-linecap: round;stroke-miterlimit: 10;stroke-width: 5px"/>
  <ellipse cx="411.04" cy="428.57" rx="3.96" ry="18.42" transform="translate(-190.23 364.09) rotate(-42.39)" style="fill: #020202;stroke: #020202;stroke-linecap: round;stroke-miterlimit: 10;stroke-width: 5px"/>
  <ellipse cx="369.54" cy="466.25" rx="3.96" ry="18.42" transform="translate(-226.48 345.96) rotate(-42.39)" style="fill: #020202;stroke: #020202;stroke-linecap: round;stroke-miterlimit: 10;stroke-width: 5px"/>
  <ellipse cx="377.48" cy="458.62" rx="3.96" ry="18.42" transform="translate(-219.26 349.32) rotate(-42.39)" style="fill: #020202;stroke: #020202;stroke-linecap: round;stroke-miterlimit: 10;stroke-width: 5px"/>
  <ellipse cx="385.63" cy="451.3" rx="3.96" ry="18.42" transform="translate(-212.2 352.9) rotate(-42.39)" style="fill: #020202;stroke: #020202;stroke-linecap: round;stroke-miterlimit: 10;stroke-width: 5px"/>
  <ellipse cx="344.53" cy="489.31" rx="3.96" ry="18.42" transform="translate(-248.56 335.13) rotate(-42.39)" style="fill: #020202;stroke: #020202;stroke-linecap: round;stroke-miterlimit: 10;stroke-width: 5px"/>
  <ellipse cx="352.47" cy="481.68" rx="3.96" ry="18.42" transform="translate(-241.34 338.49) rotate(-42.39)" style="fill: #020202;stroke: #020202;stroke-linecap: round;stroke-miterlimit: 10;stroke-width: 5px"/>
  <ellipse cx="360.61" cy="474.36" rx="3.96" ry="18.42" transform="translate(-234.28 342.07) rotate(-42.39)" style="fill: #020202;stroke: #020202;stroke-linecap: round;stroke-miterlimit: 10;stroke-width: 5px"/>
  <ellipse cx="222.85" cy="656.16" rx="18.42" ry="3.96" transform="translate(-364.25 249.39) rotate(-37.81)" style="fill: #020202;stroke: #020202;stroke-linecap: round;stroke-miterlimit: 10;stroke-width: 5px"/>
  <ellipse cx="219.32" cy="644.22" rx="18.42" ry="3.96" transform="translate(-305.29 175.33) rotate(-30.49)" style="fill: #020202;stroke: #020202;stroke-linecap: round;stroke-miterlimit: 10;stroke-width: 5px"/>
  <ellipse cx="215.43" cy="632.61" rx="18.42" ry="3.96" transform="translate(-233.07 104.36) rotate(-22.34)" style="fill: #020202;stroke: #020202;stroke-linecap: round;stroke-miterlimit: 10;stroke-width: 5px"/>
  <ellipse cx="214.12" cy="621" rx="18.42" ry="3.96" transform="translate(-106.14 17.65) rotate(-9.28)" style="fill: #020202;stroke: #020202;stroke-linecap: round;stroke-miterlimit: 10;stroke-width: 5px"/>
  <ellipse cx="214.1" cy="610.68" rx="3.96" ry="18.42" transform="translate(-414.26 772.35) rotate(-87.45)" style="fill: #020202;stroke: #020202;stroke-linecap: round;stroke-miterlimit: 10;stroke-width: 5px"/>
  <ellipse cx="216.69" cy="599.34" rx="3.96" ry="18.42" transform="translate(-426.98 629.59) rotate(-75.1)" style="fill: #020202;stroke: #020202;stroke-linecap: round;stroke-miterlimit: 10;stroke-width: 5px"/>
  <ellipse cx="221.84" cy="589.01" rx="3.96" ry="18.42" transform="translate(-416.08 546.36) rotate(-67.76)" style="fill: #020202;stroke: #020202;stroke-linecap: round;stroke-miterlimit: 10;stroke-width: 5px"/>
  <ellipse cx="226.98" cy="578.68" rx="3.96" ry="18.42" transform="translate(-399.98 488.7) rotate(-62.59)" style="fill: #020202;stroke: #020202;stroke-linecap: round;stroke-miterlimit: 10;stroke-width: 5px"/>
  <ellipse cx="232.13" cy="568.35" rx="3.96" ry="18.42" transform="translate(-373.52 399.71) rotate(-54.26)" style="fill: #020202;stroke: #020202;stroke-linecap: round;stroke-miterlimit: 10;stroke-width: 5px"/>
  <ellipse cx="239.06" cy="559.49" rx="3.96" ry="18.42" transform="translate(-352.12 358.51) rotate(-50.05)" style="fill: #020202;stroke: #020202;stroke-linecap: round;stroke-miterlimit: 10;stroke-width: 5px"/>
  <ellipse cx="246.79" cy="551.73" rx="3.96" ry="18.42" transform="translate(-343.41 361.66) rotate(-50.05)" style="fill: #020202;stroke: #020202;stroke-linecap: round;stroke-miterlimit: 10;stroke-width: 5px"/>
  <ellipse cx="254.52" cy="543.98" rx="3.96" ry="18.42" transform="translate(-319.21 315.24) rotate(-45.1)" style="fill: #020202;stroke: #020202;stroke-linecap: round;stroke-miterlimit: 10;stroke-width: 5px"/>
  <ellipse cx="262.25" cy="538.8" rx="3.96" ry="18.42" transform="translate(-284.02 248.9) rotate(-37.81)" style="fill: #020202;stroke: #020202;stroke-linecap: round;stroke-miterlimit: 10;stroke-width: 5px"/>
  <ellipse cx="269.98" cy="533.63" rx="3.96" ry="18.42" transform="matrix(0.83, -0.56, 0.56, 0.83, -262.42, 219.73)" style="fill: #020202;stroke: #020202;stroke-linecap: round;stroke-miterlimit: 10;stroke-width: 5px"/>
  <ellipse cx="277.72" cy="528.45" rx="3.96" ry="18.42" transform="translate(-238.48 188.95) rotate(-30.49)" style="fill: #020202;stroke: #020202;stroke-linecap: round;stroke-miterlimit: 10;stroke-width: 5px"/>
  <ellipse cx="286.74" cy="524.56" rx="3.96" ry="18.42" transform="translate(-235.26 192.99) rotate(-30.49)" style="fill: #020202;stroke: #020202;stroke-linecap: round;stroke-miterlimit: 10;stroke-width: 5px"/>
  <ellipse cx="296.85" cy="520.41" rx="3.96" ry="18.42" transform="matrix(0.83, -0.56, 0.56, 0.83, -250.31, 232.57)" style="fill: #020202;stroke: #020202;stroke-linecap: round;stroke-miterlimit: 10;stroke-width: 5px"/>
  <ellipse cx="307.16" cy="515.23" rx="3.96" ry="18.42" transform="translate(-245.6 237.48) rotate(-34.28)" style="fill: #020202;stroke: #020202;stroke-linecap: round;stroke-miterlimit: 10;stroke-width: 5px"/>
  <ellipse cx="317.48" cy="510.05" rx="3.96" ry="18.42" transform="translate(-254.8 276.72) rotate(-37.81)" style="fill: #020202;stroke: #020202;stroke-linecap: round;stroke-miterlimit: 10;stroke-width: 5px"/>
  <ellipse cx="326.5" cy="503.59" rx="3.96" ry="18.42" transform="translate(-262.9 326.71) rotate(-42.39)" style="fill: #020202;stroke: #020202;stroke-linecap: round;stroke-miterlimit: 10;stroke-width: 5px"/>
  <ellipse cx="335.52" cy="497.12" rx="3.96" ry="18.42" transform="translate(-256.18 331.1) rotate(-42.39)" style="fill: #020202;stroke: #020202;stroke-linecap: round;stroke-miterlimit: 10;stroke-width: 5px"/>
  <ellipse cx="478.23" cy="368.63" rx="3.96" ry="18.42" transform="translate(-132.26 393.72) rotate(-42.39)" style="fill: #020202;stroke: #020202;stroke-linecap: round;stroke-miterlimit: 10;stroke-width: 5px"/>
  <ellipse cx="486.17" cy="361" rx="3.96" ry="18.42" transform="translate(-125.04 397.08) rotate(-42.39)" style="fill: #020202;stroke: #020202;stroke-linecap: round;stroke-miterlimit: 10;stroke-width: 5px"/>
  <ellipse cx="453.22" cy="391.69" rx="3.96" ry="18.42" transform="translate(-154.34 382.89) rotate(-42.39)" style="fill: #020202;stroke: #020202;stroke-linecap: round;stroke-miterlimit: 10;stroke-width: 5px"/>
  <ellipse cx="461.16" cy="384.06" rx="3.96" ry="18.42" transform="translate(-147.12 386.25) rotate(-42.39)" style="fill: #020202;stroke: #020202;stroke-linecap: round;stroke-miterlimit: 10;stroke-width: 5px"/>
  <ellipse cx="469.31" cy="376.74" rx="3.96" ry="18.42" transform="translate(-140.06 389.83) rotate(-42.39)" style="fill: #020202;stroke: #020202;stroke-linecap: round;stroke-miterlimit: 10;stroke-width: 5px"/>
  <ellipse cx="623.76" cy="376.42" rx="18.42" ry="3.96" transform="translate(-91.93 527.5) rotate(-45.1)" style="fill: #020202;stroke: #020202;stroke-linecap: round;stroke-miterlimit: 10;stroke-width: 5px"/>
  <ellipse cx="615" cy="367.69" rx="18.42" ry="3.96" transform="translate(-88.32 518.73) rotate(-45.1)" style="fill: #020202;stroke: #020202;stroke-linecap: round;stroke-miterlimit: 10;stroke-width: 5px"/>
  <ellipse cx="607.25" cy="359.96" rx="18.42" ry="3.96" transform="translate(-85.13 510.96) rotate(-45.1)" style="fill: #020202;stroke: #020202;stroke-linecap: round;stroke-miterlimit: 10;stroke-width: 5px"/>
  <ellipse cx="599.49" cy="352.23" rx="18.42" ry="3.96" transform="translate(-81.94 503.2) rotate(-45.1)" style="fill: #020202;stroke: #020202;stroke-linecap: round;stroke-miterlimit: 10;stroke-width: 5px"/>
  <ellipse cx="591.74" cy="344.5" rx="18.42" ry="3.96" transform="translate(-59.52 556.17) rotate(-50.43)" style="fill: #020202;stroke: #020202;stroke-linecap: round;stroke-miterlimit: 10;stroke-width: 5px"/>
  <ellipse cx="582.69" cy="338.06" rx="18.42" ry="3.96" transform="translate(-38.88 592.82) rotate(-54.66)" style="fill: #020202;stroke: #020202;stroke-linecap: round;stroke-miterlimit: 10;stroke-width: 5px"/>
  <ellipse cx="573.65" cy="331.63" rx="18.42" ry="3.96" transform="translate(1.43 655.26) rotate(-61.78)" style="fill: #020202;stroke: #020202;stroke-linecap: round;stroke-miterlimit: 10;stroke-width: 5px"/>
  <ellipse cx="563.32" cy="326.48" rx="18.42" ry="3.96" transform="translate(26.17 681.88) rotate(-65.85)" style="fill: #020202;stroke: #020202;stroke-linecap: round;stroke-miterlimit: 10;stroke-width: 5px"/>
  <ellipse cx="552.99" cy="323.92" rx="18.42" ry="3.96" transform="translate(63.21 722.38) rotate(-71.72)" style="fill: #020202;stroke: #020202;stroke-linecap: round;stroke-miterlimit: 10;stroke-width: 5px"/>
  <ellipse cx="543.95" cy="322.65" rx="18.42" ry="3.96" transform="translate(171.33 814.91) rotate(-85.55)" style="fill: #020202;stroke: #020202;stroke-linecap: round;stroke-miterlimit: 10;stroke-width: 5px"/>
  <ellipse cx="534.92" cy="323.2" rx="3.96" ry="18.42" transform="translate(-63.14 90.03) rotate(-11.69)" style="fill: #020202;stroke: #020202;stroke-linecap: round;stroke-miterlimit: 10;stroke-width: 5px"/>
  <ellipse cx="527.18" cy="326.55" rx="3.96" ry="18.42" transform="translate(-98.6 239.57) rotate(-26.04)" style="fill: #020202;stroke: #020202;stroke-linecap: round;stroke-miterlimit: 10;stroke-width: 5px"/>
  <ellipse cx="443.9" cy="399.47" rx="3.96" ry="18.42" transform="translate(-162.03 378.64) rotate(-42.39)" style="fill: #020202;stroke: #020202;stroke-linecap: round;stroke-miterlimit: 10;stroke-width: 5px"/>
  <ellipse cx="502.7" cy="345.12" rx="3.96" ry="18.42" transform="translate(-112.84 380.38) rotate(-40.15)" style="fill: #020202;stroke: #020202;stroke-linecap: round;stroke-miterlimit: 10;stroke-width: 5px"/>
  <ellipse cx="494.32" cy="353.68" rx="3.96" ry="18.42" transform="translate(-117.98 400.66) rotate(-42.39)" style="fill: #020202;stroke: #020202;stroke-linecap: round;stroke-miterlimit: 10;stroke-width: 5px"/>
  <ellipse cx="512.25" cy="338.19" rx="3.96" ry="18.42" transform="translate(-108.97 353.92) rotate(-37.24)" style="fill: #020202;stroke: #020202;stroke-linecap: round;stroke-miterlimit: 10;stroke-width: 5px"/>
  <ellipse cx="519.45" cy="331.72" rx="3.96" ry="18.42" transform="translate(-105.43 322.99) rotate(-34.08)" style="fill: #020202;stroke: #020202;stroke-linecap: round;stroke-miterlimit: 10;stroke-width: 5px"/>
  <polygon points="515.32 499.44 542.6 472.16 576.15 505.71 542.6 539.27 515.71 512.37 515.32 499.44" style="fill: none;stroke: #000;stroke-miterlimit: 10;stroke-width: 2px"/>
  <polygon points="573.39 557.51 600.67 530.23 634.22 563.78 600.67 597.34 573.78 570.44 573.39 557.51" style="fill: none;stroke: #000;stroke-miterlimit: 10;stroke-width: 2px"/>
  <circle cx="496.15" cy="479.91" r="10.95" style="stroke: #000;stroke-miterlimit: 10;stroke-width: 2px"/>
  <circle cx="496.15" cy="479.91" r="9.12" style="fill: none;stroke: #fff;stroke-miterlimit: 10;stroke-width: 0.75px"/>
  <line x1="768.43" y1="295.37" x2="705.26" y2="358.66" style="fill: none;stroke: #000;stroke-linecap: round;stroke-miterlimit: 10;stroke-width: 2px"/>
  <line x1="768.43" y1="295.38" x2="768.43" y2="259.24" style="fill: none;stroke: #000;stroke-linecap: round;stroke-miterlimit: 10;stroke-width: 2px"/>
  <line x1="790.36" y1="237.31" x2="768.43" y2="259.24" style="fill: none;stroke: #000;stroke-linecap: round;stroke-miterlimit: 10;stroke-width: 2px"/>
  <path d="M1019.73,142.88" transform="translate(-8.76 -25.03)" style="fill: none;stroke: #000;stroke-miterlimit: 10;stroke-width: 2px"/>
  <path d="M1007.19,154.43" transform="translate(-8.76 -25.03)" style="fill: none;stroke: #000;stroke-miterlimit: 10;stroke-width: 2px"/>
  <path d="M1070.54,197.38c-.17,5.06-1.33,16.37-8.28,25.55-7.75,10.26-17.48,10.95-20.69,10.95a25.74,25.74,0,0,1-22.08-12.77c-6-9.84-5.72-21.48-5.52-27.38.64-18.38,8-26.32,16.56-49.27a240.13,240.13,0,0,0,11-40.15c1.4,6.73,3.19,14.1,5.52,21.9,2.21,7.43,4.57,14.13,6.9,20.08,2.76,7.29,8.27,18.24,9.65,21.89S1070.86,188,1070.54,197.38Z" transform="translate(-8.76 -25.03)" style="fill: none;stroke: #000;stroke-miterlimit: 10;stroke-width: 2px"/>
</svg>
